<svg xmlns="http://www.w3.org/2000/svg" width="450.032" height="146.397" viewBox="0 0 450.032 146.397"><path fill="#3378BD" d="M68.517 10C36.2 10 10 36.2 10 68.52s26.2 58.517 58.516 58.517c32.32 0 58.516-26.2 58.516-58.518S100.836 10 68.517 10zm25.766 90.707l-10.138-.037c-8.785-.15-15.923-7.48-15.927-16.343V62.463l-11.113.016c-2.064 0-3.714 1.517-4.11 3.774l-.01 28.247c0 3.313-2.7 6.01-6.013 6.01s-6.01-2.696-6.01-6.01l-.02-27.89c0-8.907 7.247-16.153 16.155-16.153l11.12-.016v-11.4c0-3.313 2.695-6.01 6.007-6.01s6.006 2.696 6.006 6.01l.006 11.39 7.087-.01c3.318 0 6.02 2.692 6.023 6 .004 1.608-.62 3.12-1.762 4.257-1.12 1.128-2.625 1.754-4.232 1.762l-7.115.007.002 21.972c0 2.376 1.81 4.235 4.122 4.235l9.928.033c3.304 0 5.994 2.697 5.994 6.01 0 3.307-2.69 6.005-6 6.01zm122.037-10.27c-1.115-1.18-3.05-1.943-4.926-1.943-1.532 0-2.938.5-3.956 1.406-5.448 4.846-12.473 7.514-19.777 7.514-16.412 0-29.765-13.356-29.765-29.773 0-16.414 13.353-29.77 29.766-29.77 6.843 0 13.673 2.595 19.75 7.5 2.437 1.966 6.97 1.6 8.902-.504.934-1.015 1.457-2.753 1.367-4.536-.09-1.78-.763-3.314-1.892-4.32-7.758-6.9-17.745-10.7-28.128-10.7-23.34 0-42.327 18.99-42.327 42.33 0 23.345 18.987 42.335 42.327 42.335 10.383 0 20.372-3.795 28.126-10.688 1.178-1.05 1.87-2.62 1.947-4.426.075-1.726-.466-3.42-1.413-4.423zm156.675-16.273c0-3.278-.637-6.404-1.895-9.292-1.27-2.922-3.008-5.496-5.164-7.65-2.146-2.146-4.736-3.883-7.7-5.162-2.93-1.258-6.077-1.897-9.354-1.897-3.357 0-6.412.58-9.074 1.73-2.725 1.17-5.068 2.66-6.967 4.422l-1.937 1.8-1.97-1.76c-1.997-1.79-4.376-3.292-7.08-4.47-2.62-1.144-5.687-1.722-9.114-1.722-3.274 0-6.402.638-9.295 1.894-2.918 1.27-5.492 3.01-7.65 5.166-2.158 2.158-3.895 4.73-5.164 7.648-1.257 2.89-1.894 6.017-1.894 9.295v29.44c0 1.714.563 3.09 1.77 4.325 1.19 1.215 2.53 1.783 4.22 1.783 1.7 0 3.067-.576 4.3-1.807 1.23-1.232 1.806-2.602 1.806-4.3V74.163c0-3.247 1.18-6.074 3.504-8.4 2.33-2.328 5.157-3.508 8.403-3.508 3.323 0 6.188 1.18 8.517 3.507 2.326 2.327 3.504 5.154 3.504 8.4v29.442c0 1.7.577 3.068 1.81 4.3 1.23 1.23 2.598 1.808 4.3 1.808.825 0 1.606-.156 2.323-.46.727-.312 1.373-.747 1.92-1.29.53-.533.96-1.188 1.275-1.945.31-.756.47-1.566.47-2.412V74.164c0-3.25 1.18-6.076 3.505-8.4 2.328-2.328 5.195-3.508 8.52-3.508 3.232 0 6.07 1.174 8.436 3.485 2.378 2.332 3.585 5.165 3.585 8.424v29.44c0 1.716.562 3.09 1.77 4.325 1.19 1.214 2.53 1.782 4.22 1.782 1.698 0 3.065-.576 4.3-1.81 1.23-1.23 1.803-2.597 1.803-4.298v-29.44zm-91.522 5.533c0-.15-.02-.296-.02-.445v-.558c0-.19-.04-.375-.06-.562-.82-15.734-13.842-28.292-29.777-28.292-16.465 0-29.858 13.394-29.858 29.857 0 16.465 13.393 29.857 29.858 29.857 7.023 0 13.48-2.453 18.584-6.527v1.412c0 3.108 2.518 5.626 5.623 5.626 3.11 0 5.63-2.518 5.63-5.627V80.14c-.002-.15.02-.294.02-.445zm-29.858 18.607c-10.26 0-18.607-8.348-18.607-18.607s8.348-18.606 18.607-18.606c10.107 0 18.346 8.11 18.584 18.162v.89c-.24 10.053-8.477 18.162-18.585 18.162zm128.726-17.95v50.417c0 3.11 2.52 5.626 5.624 5.626 3.107 0 5.627-2.516 5.627-5.625v-27.53c5.106 4.072 11.558 6.527 18.585 6.527 16.463 0 29.857-13.393 29.857-29.858S426.637 50.05 410.175 50.05c-15.936 0-28.955 12.558-29.78 28.29-.017.19-.054.372-.054.565v.557c-.003.148-.022.295-.022.445s.02.296.023.444zm11.25 0v-.89c.24-10.053 8.474-18.162 18.585-18.162 10.26 0 18.605 8.347 18.605 18.606 0 10.26-8.346 18.608-18.605 18.608-10.112 0-18.344-8.108-18.584-18.162z"/></svg>